<?xml version="1.0" encoding="utf-8"?>
<!-- Generator: Adobe Illustrator 16.0.0, SVG Export Plug-In . SVG Version: 6.00 Build 0)  -->
<!DOCTYPE svg PUBLIC "-//W3C//DTD SVG 1.1//EN" "http://www.w3.org/Graphics/SVG/1.1/DTD/svg11.dtd">
<svg version="1.1" id="Calque_1" xmlns="http://www.w3.org/2000/svg" xmlns:xlink="http://www.w3.org/1999/xlink" x="0px" y="0px"
	 width="476.22px" height="87.874px" viewBox="149.43 268.611 476.22 87.874" enable-background="new 149.43 268.611 476.22 87.874"
	 xml:space="preserve">
<g id="b5a93e15-ef7c-9d7a-680b-cdb17474f15f" transform="matrix(2.2,0,0,2.2,90.86749374866484,130.23299922943116)">
	<path fill="#FD2D01" d="M84.759,91.006L84.759,91.006c-2.884,0-5.298-0.973-7.243-2.917l0,0l0,0
		c-1.944-1.945-2.917-4.372-2.917-7.282l0,0l0,0c0-2.857,0.973-5.265,2.917-7.223l0,0l0,0c1.945-1.944,4.359-2.916,7.243-2.916l0,0
		l0,0c2.897,0,5.384,0.906,7.461,2.718l0,0l-2.699,2.956l0,0c-1.388-1.085-2.976-1.627-4.762-1.627l0,0l0,0
		c-1.825,0.013-3.3,0.589-4.425,1.727l0,0l0,0c-1.112,1.124-1.667,2.566-1.667,4.325l0,0l0,0c0,1.892,0.562,3.393,1.686,4.505l0,0
		l0,0c1.125,1.111,2.599,1.666,4.425,1.666l0,0l0,0c1.468,0,2.593-0.284,3.373-0.853l0,0v-3.492l-2.698,0.02v-3.81h6.766v9.505l0,0
		C90.156,90.106,87.669,91.006,84.759,91.006L84.759,91.006z M99.502,77.433v1.508l0,0c0.979-0.992,2.163-1.488,3.552-1.488l0,0l0,0
		c0.436,0,0.854,0.033,1.25,0.099l0,0l-0.596,3.75l0,0c-0.436-0.397-1.064-0.609-1.885-0.635l0,0l0,0
		c-0.926,0.066-1.7,0.734-2.322,2.004l0,0v8.334h-3.79V77.85L99.502,77.433z M112.935,91.145L112.935,91.145
		c-1.971,0-3.618-0.661-4.941-1.984l0,0l0,0c-1.309-1.323-1.965-2.963-1.965-4.921l0,0l0,0c0-1.971,0.655-3.619,1.965-4.941l0,0l0,0
		c1.323-1.323,2.97-1.984,4.941-1.984l0,0l0,0c1.971,0,3.619,0.661,4.941,1.984l0,0l0,0c1.323,1.323,1.984,2.97,1.984,4.941l0,0l0,0
		c0,1.971-0.661,3.611-1.984,4.921l0,0l0,0C116.554,90.483,114.907,91.145,112.935,91.145L112.935,91.145z M112.935,87.871
		L112.935,87.871L112.935,87.871c1.019,0,1.852-0.351,2.5-1.052l0,0l0,0c0.649-0.688,0.973-1.547,0.973-2.579l0,0l0,0
		c0-1.032-0.324-1.892-0.973-2.58l0,0l0,0c-0.649-0.701-1.488-1.052-2.52-1.052l0,0l0,0c-1.019,0-1.852,0.35-2.5,1.052l0,0l0,0
		c-0.635,0.688-0.953,1.548-0.953,2.58l0,0l0,0c0,1.032,0.317,1.891,0.953,2.579l0,0l0,0
		C111.064,87.52,111.904,87.871,112.935,87.871z M130.615,86.204L130.615,86.204v-8.771h3.79v13.573h-3.79v-1.23l0,0
		c-0.913,0.82-1.997,1.23-3.255,1.23l0,0l0,0c-1.72,0-3.029-0.523-3.928-1.568l0,0l0,0c-0.913-1.045-1.369-2.242-1.369-3.592l0,0
		v-8.414h3.809v7.461l0,0c0,0.9,0.225,1.601,0.675,2.104l0,0l0,0c0.45,0.502,1.131,0.767,2.044,0.794l0,0l0,0
		C129.385,87.739,130.06,87.209,130.615,86.204z M141.43,96.721l-3.79-0.02V77.85l3.79-0.417v1.092l0,0
		c1.018-0.728,2.017-1.092,2.996-1.092l0,0l0,0c2.077,0,3.723,0.682,4.941,2.044l0,0l0,0c1.23,1.349,1.846,2.93,1.846,4.742l0,0l0,0
		c0,1.813-0.615,3.393-1.846,4.743l0,0l0,0c-1.217,1.363-2.864,2.044-4.941,2.044l0,0l0,0c-1.363-0.093-2.362-0.463-2.996-1.112l0,0
		V96.721z M141.43,82.989L141.43,82.989v2.203l0,0c0.186,1.521,1.137,2.414,2.858,2.679l0,0l0,0c2.169-0.172,3.392-1.297,3.67-3.374
		l0,0l0,0c-0.092-2.54-1.316-3.856-3.67-3.948l0,0l0,0C142.567,80.826,141.615,81.64,141.43,82.989z M160.042,91.145L160.042,91.145
		c-1.971,0-3.612-0.661-4.921-1.984l0,0l0,0c-1.323-1.323-1.984-2.963-1.984-4.921l0,0l0,0c0-1.971,0.661-3.619,1.984-4.941l0,0l0,0
		c1.309-1.323,2.95-1.984,4.921-1.984l0,0l0,0c1.971,0,3.618,0.661,4.941,1.984l0,0l0,0c1.323,1.323,1.984,2.97,1.984,4.941l0,0l0,0
		c0,1.971-0.661,3.611-1.984,4.921l0,0l0,0C163.66,90.483,162.013,91.145,160.042,91.145L160.042,91.145z M160.042,87.871
		L160.042,87.871L160.042,87.871c1.032,0,1.865-0.351,2.5-1.052l0,0l0,0c0.648-0.688,0.972-1.547,0.972-2.579l0,0l0,0
		c0-1.032-0.324-1.892-0.972-2.58l0,0l0,0c-0.635-0.701-1.475-1.052-2.52-1.052l0,0l0,0c-1.019,0-1.852,0.35-2.501,1.052l0,0l0,0
		c-0.635,0.688-0.952,1.548-0.952,2.58l0,0l0,0c0,1.032,0.317,1.891,0.952,2.579l0,0l0,0C158.17,87.52,159.01,87.871,160.042,87.871
		z M173.297,82.335L173.297,82.335v8.671h-3.809V77.85l3.809-0.417v1.211l0,0c0.847-0.794,1.932-1.191,3.255-1.191l0,0l0,0
		c1.706,0,3.016,0.516,3.928,1.547l0,0l0,0c0.993-1.032,2.48-1.547,4.465-1.547l0,0l0,0c1.72,0,3.036,0.516,3.949,1.547l0,0l0,0
		c0.899,1.045,1.349,2.249,1.349,3.612l0,0v8.394h-3.79v-7.461l0,0c0-0.9-0.205-1.601-0.615-2.104l0,0l0,0
		c-0.41-0.489-1.072-0.748-1.984-0.774l0,0l0,0c-0.754,0.053-1.402,0.549-1.944,1.488l0,0l0,0c-0.053,0.278-0.08,0.562-0.08,0.853
		l0,0v7.997h-3.79v-7.461l0,0c0-0.9-0.205-1.601-0.615-2.104l0,0l0,0c-0.41-0.489-1.072-0.748-1.984-0.774l0,0l0,0
		C174.607,80.721,173.892,81.276,173.297,82.335z M195.342,81.382l-1.488-2.302l0,0c1.72-1.085,3.71-1.627,5.972-1.627l0,0l0,0
		c1.627,0,2.91,0.449,3.849,1.349l0,0l0,0c0.953,0.913,1.429,2.269,1.429,4.068l0,0v8.136h-3.79v-1.072l0,0
		c-1.112,0.714-2.11,1.072-2.996,1.072l0,0l0,0c-1.8,0-3.155-0.384-4.068-1.151l0,0l0,0c-0.899-0.767-1.349-1.826-1.349-3.175l0,0
		l0,0c0-1.27,0.43-2.401,1.29-3.393l0,0l0,0c0.846-0.993,2.222-1.488,4.127-1.488l0,0l0,0c0.886,0,1.885,0.271,2.996,0.814l0,0
		v-0.417l0,0c-0.027-0.992-0.755-1.535-2.183-1.627l0,0l0,0C197.505,80.569,196.241,80.84,195.342,81.382L195.342,81.382z
		 M201.315,86.938L201.315,86.938V85.41l0,0c-0.358-0.701-1.217-1.051-2.58-1.051l0,0l0,0c-1.627,0.185-2.487,0.82-2.58,1.905l0,0
		l0,0c0.093,1.072,0.953,1.653,2.58,1.746l0,0l0,0C200.098,88.01,200.957,87.652,201.315,86.938z M212.308,82.394L212.308,82.394
		v8.612h-3.809V77.85l3.809-0.417v1.23l0,0c0.913-0.807,1.997-1.21,3.255-1.21l0,0l0,0c1.72,0,3.029,0.516,3.928,1.547l0,0l0,0
		c0.899,1.045,1.349,2.249,1.349,3.612l0,0v8.394h-3.79v-7.461l0,0c0-0.9-0.225-1.601-0.675-2.104l0,0l0,0
		c-0.463-0.489-1.151-0.748-2.064-0.774l0,0l0,0C213.531,80.721,212.863,81.296,212.308,82.394z M227.824,91.006h-3.79V77.433h3.79
		V91.006z M223.896,74.199L223.896,74.199L223.896,74.199c0,0.542,0.178,0.993,0.535,1.349l0,0l0,0
		c0.371,0.357,0.874,0.536,1.508,0.536l0,0l0,0c0.621,0,1.118-0.179,1.488-0.536l0,0l0,0c0.358-0.357,0.536-0.807,0.536-1.349l0,0
		l0,0c0-0.542-0.178-0.999-0.536-1.369l0,0l0,0c-0.37-0.37-0.88-0.556-1.528-0.556l0,0l0,0c-0.608,0-1.097,0.186-1.468,0.556l0,0
		l0,0C224.074,73.2,223.896,73.657,223.896,74.199z M232.885,81.382l-1.489-2.302l0,0c1.721-1.085,3.711-1.627,5.973-1.627l0,0l0,0
		c1.627,0,2.917,0.449,3.869,1.349l0,0l0,0c0.939,0.913,1.409,2.269,1.409,4.068l0,0v8.136h-3.79v-1.072l0,0
		c-1.097,0.714-2.09,1.072-2.976,1.072l0,0l0,0c-1.813,0-3.169-0.384-4.068-1.151l0,0l0,0c-0.913-0.767-1.369-1.826-1.369-3.175l0,0
		l0,0c0-1.27,0.43-2.401,1.289-3.393l0,0l0,0c0.847-0.993,2.229-1.488,4.148-1.488l0,0l0,0c0.873,0,1.865,0.271,2.976,0.814l0,0
		v-0.417l0,0c-0.013-0.992-0.734-1.535-2.163-1.627l0,0l0,0C235.067,80.569,233.797,80.84,232.885,81.382L232.885,81.382z
		 M238.857,86.938L238.857,86.938V85.41l0,0c-0.357-0.701-1.216-1.051-2.579-1.051l0,0l0,0c-1.627,0.185-2.488,0.82-2.58,1.905l0,0
		l0,0c0.092,1.072,0.953,1.653,2.58,1.746l0,0l0,0C237.64,88.01,238.5,87.652,238.857,86.938z"/>
</g>
<g id="_x39_269873b-566f-aa23-fe77-697bbc54db67" transform="matrix(0.17276311525438642,0,0,0.17276311525438642,35.75002377601375,124.08554457454373)">
	<g>
		<path fill="#FFD7D7" d="M912.359,1339.706c66.678,0,129.179-25.595,176.203-72.625c47.03-47.03,72.625-109.531,72.625-176.203
			s-25.595-129.174-72.625-176.203c-47.024-47.03-109.525-72.625-176.203-72.625c-66.667,0-129.174,25.595-176.198,72.625
			c-47.03,47.03-72.625,109.531-72.625,176.203s25.595,129.174,72.625,176.203C783.185,1314.111,845.692,1339.706,912.359,1339.706z
			 M926.648,1297.441c-4.76,0.594-9.525,0.594-14.29,0.594c-6.546,0-13.092-0.594-19.637-1.187
			c-21.435-33.339-37.505-69.058-47.03-106.557h105.365c3.573,8.931,10.118,17.263,17.862,22.622
			C958.795,1242.673,944.511,1270.653,926.648,1297.441z M983.197,1285.537c11.317-20.836,20.248-41.671,27.387-63.699
			c17.263-3.572,30.954-15.477,37.505-31.547h45.831C1070.112,1233.748,1030.227,1267.675,983.197,1285.537z M1118.928,1090.878
			c0,19.643-2.979,38.692-7.744,57.148h-64.287c-3.573-7.739-9.525-14.883-16.67-20.236c1.193-13.103,1.786-26.194,1.786-39.291
			c0-18.456-1.187-36.906-3.573-54.768h82.149C1116.542,1051.592,1118.928,1071.235,1118.928,1090.878L1118.928,1090.878z
			 M1093.92,991.465h-72.625c-7.733-32.74-19.049-63.694-34.526-93.455C1032.013,915.274,1070.112,949.201,1093.92,991.465z
			 M990.342,1088.498c0,10.118-0.594,20.242-1.187,30.36c-16.67,3.573-30.36,14.284-36.912,29.167H837.36
			c-2.385-17.862-4.172-36.313-4.172-54.175c0-11.305,0.599-22.616,1.786-33.927c15.477-2.973,27.98-13.097,35.719-26.194H986.77
			C989.155,1051.592,990.342,1070.042,990.342,1088.498L990.342,1088.498z M896.882,884.908c5.359-0.594,10.718-0.594,15.477-0.594
			c5.958,0,11.91,0,17.862,0.594c21.435,33.339,37.5,69.052,47.03,106.557H873.672c-3.573-10.118-10.118-19.049-18.456-25.595
			C865.928,937.296,879.619,910.508,896.882,884.908z M840.333,896.818c-10.118,19.044-19.049,39.286-26.194,59.528
			c-18.45,3.572-33.333,17.263-39.286,34.526h-43.452C754.617,948.607,793.303,914.674,840.333,896.818z M705.801,1090.878
			c0-19.643,2.979-39.286,8.338-57.148h64.881c3.573,6.546,8.931,12.504,14.883,17.263c-1.187,14.29-2.385,28.574-2.385,42.858
			c0,18.456,1.198,36.312,3.572,54.175h-80.951C708.181,1129.57,705.801,1110.526,705.801,1090.878z M802.234,1189.697
			c7.744,32.141,19.049,63.694,34.526,93.455c-45.243-17.857-82.743-51.19-105.958-93.455H802.234z"/>
	</g>
</g>
</svg>
