<?xml version="1.0" encoding="utf-8"?>
<!-- Generator: Adobe Illustrator 16.0.0, SVG Export Plug-In . SVG Version: 6.00 Build 0)  -->
<!DOCTYPE svg PUBLIC "-//W3C//DTD SVG 1.1//EN" "http://www.w3.org/Graphics/SVG/1.1/DTD/svg11.dtd">
<svg version="1.1" id="Calque_1" xmlns="http://www.w3.org/2000/svg" xmlns:xlink="http://www.w3.org/1999/xlink" x="0px" y="0px"
	 width="36.042px" height="36.042px" viewBox="0 0 36.042 36.042" enable-background="new 0 0 36.042 36.042" xml:space="preserve">
<g>
	<g>
		<linearGradient id="SVGID_1_" gradientUnits="userSpaceOnUse" x1="1.5996" y1="1.5996" x2="34.4435" y2="34.4435">
			<stop  offset="0" style="stop-color:#92B0DD"/>
			<stop  offset="0.4109" style="stop-color:#92B0DD"/>
			<stop  offset="0.6337" style="stop-color:#2A509B"/>
			<stop  offset="1" style="stop-color:#2A509B"/>
		</linearGradient>
		<path fill="url(#SVGID_1_)" d="M0.354,31.436c0,2.349,1.904,4.252,4.252,4.252h26.83c2.348,0,4.252-1.903,4.252-4.252V4.606
			c0-2.348-1.904-4.252-4.252-4.252H4.606c-2.348,0-4.252,1.904-4.252,4.252V31.436z"/>
	</g>
	<path fill="#191B1E" d="M31.436,36.043H4.606C2.066,36.043,0,33.977,0,31.436V4.606C0,2.067,2.066,0,4.606,0h26.83
		c2.54,0,4.606,2.066,4.606,4.606v26.829C36.042,33.977,33.975,36.043,31.436,36.043z M4.606,0.709
		c-2.149,0-3.898,1.749-3.898,3.897v26.829c0,2.15,1.749,3.898,3.898,3.898h26.83c2.149,0,3.897-1.748,3.897-3.898V4.606
		c0-2.149-1.749-3.897-3.897-3.897H4.606z"/>
</g>
<path fill="#FFFFFF" d="M22.879,27.717c1.313,0,1.564,0,2.625-0.866s0.307-1.761,1.034-2.347c0.726-0.587,0.838-1.033,0.643-1.844
	c-0.196-0.811-0.475-0.865,0.028-1.341c0.502-0.475,0.698-0.949,0.279-1.899c-0.419-0.949-0.279-1.173,0-1.76
	c0.279-0.586,0.196-1.173,0.196-1.173c0-2.542-4.917-1.844-6.286-1.844s-0.754-1.369,0.056-2.934c0.81-1.564,1.452-5.335-0.95-5.224
	c-2.402,0.112-0.67,2.179-1.76,3.492c-1.089,1.313-2.402,2.15-4.05,3.883c-1.648,1.731-1.022,3.072-1.927,3.072
	c-0.906,0-0.838,0.42-0.838,0.42s-0.001,7.355-0.001,8.965c0,0-0.016,1.085,1.89,1.163S22.879,27.717,22.879,27.717z"/>
<g>
	<path fill="#FFFFFF" d="M7.396,26.581c0,0.392,0.317,0.709,0.708,0.709h2.583c0.391,0,0.708-0.317,0.708-0.709v-8.974
		c0-0.392-0.317-0.709-0.708-0.709H8.104c-0.391,0-0.708,0.317-0.708,0.709V26.581z"/>
</g>
<path fill="#FFFFFF" stroke="#222221" stroke-width="0.125" stroke-miterlimit="10" d="M13.317,29.558"/>
<g>
	<g>
		
			<linearGradient id="SVGID_2_" gradientUnits="userSpaceOnUse" x1="438.9141" y1="83.7061" x2="307.5434" y2="-47.6646" gradientTransform="matrix(-1 0 0 -1 746.457 36.043)">
			<stop  offset="0" style="stop-color:#D98B91"/>
			<stop  offset="0.3713" style="stop-color:#D98B91"/>
			<stop  offset="0.6386" style="stop-color:#9C1F1E"/>
			<stop  offset="1" style="stop-color:#9C1F1E"/>
		</linearGradient>
		<path fill="url(#SVGID_2_)" d="M302.562,71.682c0,9.394,7.614,17.008,17.008,17.008h107.318c9.394,0,17.008-7.614,17.008-17.008
			V-35.637c0-9.393-7.614-17.008-17.008-17.008H319.569c-9.394,0-17.008,7.615-17.008,17.008V71.682z"/>
	</g>
	<path fill="#191B1E" d="M426.888,90.106H319.569c-10.159,0-18.425-8.266-18.425-18.425V-35.637c0-10.16,8.266-18.425,18.425-18.425
		h107.318c10.159,0,18.425,8.265,18.425,18.425V71.682C445.313,81.841,437.047,90.106,426.888,90.106z M319.569-51.228
		c-8.596,0-15.59,6.994-15.59,15.591V71.682c0,8.596,6.994,15.59,15.59,15.59h107.318c8.596,0,15.59-6.994,15.59-15.59V-35.637
		c0-8.597-6.994-15.591-15.59-15.591H319.569z"/>
</g>
<path fill="#FFFFFF" d="M353.796-24.5c-5.252,0-6.258,0-10.503,3.464s-1.229,7.04-4.134,9.386c-2.906,2.347-3.354,4.134-2.57,7.375
	c0.781,3.241,1.899,3.463-0.111,5.362c-2.012,1.899-2.794,3.799-1.117,7.598c1.676,3.799,1.117,4.693,0,7.039
	c-1.118,2.346-0.783,4.693-0.783,4.693c0,10.168,19.666,7.375,25.141,7.375c5.476,0,3.018,5.475-0.223,11.732
	c-3.24,6.256-5.811,21.342,3.799,20.895s2.682-8.715,7.039-13.967s9.609-8.604,16.202-15.531s4.087-12.291,7.71-12.291
	s3.352-1.677,3.352-1.677s0.006-29.422,0.006-35.86c0,0,0.063-4.343-7.562-4.655S353.796-24.5,353.796-24.5z"/>
<g>
	<path fill="#FFFFFF" d="M399.729,15.937c0,1.565,1.27,2.835,2.835,2.835h10.33c1.565,0,2.835-1.27,2.835-2.835v-35.896
		c0-1.565-1.27-2.834-2.835-2.834h-10.33c-1.565,0-2.835,1.269-2.835,2.834V15.937z"/>
</g>
<path fill="#FFFFFF" stroke="#222221" stroke-width="0.5" stroke-miterlimit="10" d="M392.041-28.124"/>
</svg>
