<?xml version="1.0" encoding="utf-8"?>
<!-- Generator: Adobe Illustrator 16.0.0, SVG Export Plug-In . SVG Version: 6.00 Build 0)  -->
<!DOCTYPE svg PUBLIC "-//W3C//DTD SVG 1.1//EN" "http://www.w3.org/Graphics/SVG/1.1/DTD/svg11.dtd">
<svg version="1.1" id="Calque_1" xmlns="http://www.w3.org/2000/svg" xmlns:xlink="http://www.w3.org/1999/xlink" x="0px" y="0px"
	 width="36.041px" height="36.042px" viewBox="0 0 36.041 36.042" enable-background="new 0 0 36.041 36.042" xml:space="preserve">
<g>
	<g>
		<linearGradient id="SVGID_1_" gradientUnits="userSpaceOnUse" x1="-353.6084" y1="1.5996" x2="-320.7645" y2="34.4435">
			<stop  offset="0" style="stop-color:#92B0DD"/>
			<stop  offset="0.4109" style="stop-color:#92B0DD"/>
			<stop  offset="0.6337" style="stop-color:#2A509B"/>
			<stop  offset="1" style="stop-color:#2A509B"/>
		</linearGradient>
		<path fill="url(#SVGID_1_)" d="M-354.854,31.436c0,2.349,1.904,4.252,4.252,4.252h26.83c2.348,0,4.252-1.903,4.252-4.252V4.606
			c0-2.348-1.904-4.252-4.252-4.252h-26.83c-2.348,0-4.252,1.904-4.252,4.252V31.436z"/>
	</g>
	<path fill="#191B1E" d="M-323.772,36.043h-26.83c-2.54,0-4.606-2.066-4.606-4.607V4.606c0-2.54,2.066-4.606,4.606-4.606h26.83
		c2.54,0,4.606,2.066,4.606,4.606v26.829C-319.167,33.977-321.233,36.043-323.772,36.043z M-350.602,0.709
		c-2.149,0-3.898,1.749-3.898,3.897v26.829c0,2.15,1.749,3.898,3.898,3.898h26.83c2.149,0,3.897-1.748,3.897-3.898V4.606
		c0-2.149-1.749-3.897-3.897-3.897H-350.602z"/>
</g>
<path fill="#FFFFFF" d="M-332.329,27.717c1.313,0,1.564,0,2.625-0.866s0.307-1.761,1.034-2.347c0.726-0.587,0.838-1.033,0.643-1.844
	c-0.196-0.811-0.475-0.865,0.028-1.341c0.502-0.475,0.698-0.949,0.279-1.899c-0.419-0.949-0.279-1.173,0-1.76
	c0.279-0.586,0.196-1.173,0.196-1.173c0-2.542-4.917-1.844-6.286-1.844s-0.754-1.369,0.056-2.934c0.81-1.564,1.452-5.335-0.95-5.224
	c-2.402,0.112-0.67,2.179-1.76,3.492c-1.089,1.313-2.402,2.15-4.05,3.883c-1.648,1.731-1.022,3.072-1.927,3.072
	c-0.906,0-0.838,0.42-0.838,0.42s-0.001,7.355-0.001,8.965c0,0-0.016,1.085,1.89,1.163S-332.329,27.717-332.329,27.717z"/>
<g>
	<path fill="#FFFFFF" d="M-347.813,26.581c0,0.392,0.317,0.709,0.708,0.709h2.583c0.391,0,0.708-0.317,0.708-0.709v-8.974
		c0-0.392-0.317-0.709-0.708-0.709h-2.583c-0.391,0-0.708,0.317-0.708,0.709V26.581z"/>
</g>
<path fill="#FFFFFF" stroke="#222221" stroke-width="0.125" stroke-miterlimit="10" d="M-341.891,29.558"/>
<g>
	<g>
		
			<linearGradient id="SVGID_2_" gradientUnits="userSpaceOnUse" x1="34.4424" y1="34.4424" x2="1.5992" y2="1.5992" gradientTransform="matrix(-1 0 0 -1 36.041 36.043)">
			<stop  offset="0" style="stop-color:#D98B91"/>
			<stop  offset="0.3713" style="stop-color:#D98B91"/>
			<stop  offset="0.6386" style="stop-color:#9C1F1E"/>
			<stop  offset="1" style="stop-color:#9C1F1E"/>
		</linearGradient>
		<path fill="url(#SVGID_2_)" d="M0.354,31.438c0,2.349,1.903,4.252,4.252,4.252h26.83c2.349,0,4.252-1.903,4.252-4.252V4.607
			c0-2.348-1.903-4.252-4.252-4.252H4.605c-2.349,0-4.252,1.904-4.252,4.252V31.438z"/>
	</g>
	<path fill="#191B1E" d="M31.436,36.043H4.605C2.066,36.043,0,33.977,0,31.438V4.607c0-2.54,2.066-4.606,4.605-4.606h26.83
		c2.54,0,4.606,2.066,4.606,4.606v26.83C36.042,33.977,33.976,36.043,31.436,36.043z M4.605,0.71c-2.148,0-3.896,1.748-3.896,3.897
		v26.83c0,2.148,1.748,3.896,3.896,3.896h26.83c2.148,0,3.897-1.748,3.897-3.896V4.607c0-2.149-1.749-3.897-3.897-3.897H4.605z"/>
</g>
<path fill="#FFFFFF" d="M12.227,7.392c-1.313,0-1.564,0-2.625,0.866c-1.062,0.866-0.308,1.76-1.033,2.347
	c-0.727,0.586-0.839,1.033-0.643,1.843c0.195,0.81,0.475,0.866-0.028,1.34c-0.503,0.476-0.698,0.95-0.279,1.899
	c0.419,0.95,0.279,1.174,0,1.76c-0.279,0.587-0.196,1.174-0.196,1.174c0,2.542,4.917,1.844,6.285,1.844
	c1.369,0,0.755,1.369-0.055,2.934c-0.811,1.563-1.453,5.335,0.949,5.223c2.402-0.111,0.67-2.178,1.76-3.491s2.402-2.151,4.051-3.883
	s1.021-3.073,1.928-3.073c0.905,0,0.838-0.419,0.838-0.419s0.001-7.355,0.001-8.965c0,0,0.016-1.085-1.891-1.164
	S12.227,7.392,12.227,7.392z"/>
<g>
	<path fill="#FFFFFF" d="M23.71,17.5c0,0.392,0.317,0.709,0.709,0.709h2.582c0.392,0,0.709-0.317,0.709-0.709V8.527
		c0-0.391-0.317-0.708-0.709-0.708h-2.582c-0.392,0-0.709,0.317-0.709,0.708V17.5z"/>
</g>
<path fill="#FFFFFF" stroke="#222221" stroke-width="0.125" stroke-miterlimit="10" d="M22.724,6.486"/>
</svg>
