<?xml version="1.0" encoding="utf-8"?>
<!-- Generator: Adobe Illustrator 16.0.0, SVG Export Plug-In . SVG Version: 6.00 Build 0)  -->
<!DOCTYPE svg PUBLIC "-//W3C//DTD SVG 1.1//EN" "http://www.w3.org/Graphics/SVG/1.1/DTD/svg11.dtd">
<svg version="1.1" id="Calque_1" xmlns="http://www.w3.org/2000/svg" xmlns:xlink="http://www.w3.org/1999/xlink" x="0px" y="0px"
	 width="85.976px" height="85.977px" viewBox="193.385 279.561 85.976 85.977"
	 enable-background="new 193.385 279.561 85.976 85.977" xml:space="preserve">
<g id="_x39_269873b-566f-aa23-fe77-697bbc54db67" transform="matrix(0.17276311525438642,0,0,0.17276311525438642,35.75002377601375,124.08554457454373)">
	<g>
		<path fill="#FFD7D7" d="M1161.22,1397.588c66.678,0,129.179-25.595,176.203-72.625c47.03-47.03,72.625-109.531,72.625-176.203
			s-25.595-129.174-72.625-176.203c-47.024-47.03-109.525-72.625-176.203-72.625c-66.667,0-129.173,25.595-176.198,72.625
			c-47.03,47.03-72.625,109.531-72.625,176.203s25.595,129.173,72.625,176.203
			C1032.047,1371.993,1094.554,1397.588,1161.22,1397.588z M1175.51,1355.324c-4.76,0.594-9.525,0.594-14.29,0.594
			c-6.546,0-13.091-0.594-19.637-1.187c-21.435-33.339-37.505-69.058-47.03-106.557h105.365
			c3.573,8.931,10.118,17.263,17.862,22.622C1207.657,1300.555,1193.373,1328.536,1175.51,1355.324z M1232.059,1343.419
			c11.317-20.835,20.248-41.671,27.387-63.699c17.263-3.573,30.954-15.477,37.505-31.547h45.831
			C1318.974,1291.63,1279.089,1325.557,1232.059,1343.419z M1367.79,1148.76c0,19.643-2.979,38.692-7.744,57.148h-64.287
			c-3.572-7.739-9.525-14.883-16.669-20.236c1.193-13.103,1.786-26.194,1.786-39.291c0-18.456-1.187-36.906-3.573-54.768h82.15
			C1365.404,1109.475,1367.79,1129.117,1367.79,1148.76L1367.79,1148.76z M1342.782,1049.348h-72.625
			c-7.733-32.74-19.049-63.694-34.526-93.455C1280.875,973.156,1318.974,1007.083,1342.782,1049.348z M1239.204,1146.38
			c0,10.118-0.594,20.242-1.187,30.36c-16.669,3.572-30.36,14.284-36.911,29.167h-114.884c-2.385-17.862-4.172-36.313-4.172-54.175
			c0-11.305,0.599-22.616,1.786-33.927c15.477-2.973,27.98-13.097,35.719-26.194h116.076
			C1238.017,1109.475,1239.204,1127.925,1239.204,1146.38L1239.204,1146.38z M1145.744,942.79
			c5.359-0.594,10.717-0.594,15.477-0.594c5.958,0,11.91,0,17.862,0.594c21.435,33.339,37.5,69.052,47.03,106.557h-103.579
			c-3.572-10.118-10.118-19.049-18.456-25.595C1114.79,995.179,1128.48,968.391,1145.744,942.79z M1089.195,954.7
			c-10.118,19.044-19.049,39.286-26.194,59.528c-18.45,3.572-33.333,17.263-39.286,34.526h-43.452
			C1003.479,1006.49,1042.165,972.557,1089.195,954.7z M954.663,1148.76c0-19.643,2.979-39.286,8.337-57.148h64.881
			c3.572,6.546,8.931,12.504,14.883,17.263c-1.187,14.29-2.385,28.574-2.385,42.858c0,18.456,1.198,36.313,3.573,54.175H963
			C957.042,1187.452,954.663,1168.409,954.663,1148.76z M1051.096,1247.579c7.744,32.141,19.049,63.694,34.526,93.455
			c-45.244-17.857-82.743-51.19-105.958-93.455H1051.096z"/>
	</g>
</g>
</svg>
